<svg xmlns="http://www.w3.org/2000/svg" version="1.0" width="570.000000pt" height="649.000000pt" viewBox="0 0 570.000000 649.000000" preserveAspectRatio="xMidYMid meet">

<g transform="translate(0.000000,649.000000) scale(0.100000,-0.100000)" fill="#000000" stroke="none">
<path d="M3420 6030 c-46 -30 -136 -52 -292 -70 -95 -11 -228 -32 -296 -45 -251 -51 -521 -160 -695 -282 l-78 -54 -27 20 c-52 36 -167 89 -232 106 -46 12 -92 16 -155 13 -157 -7 -237 -58 -453 -293 -66 -72 -191 -195 -278 -275 -202 -182 -326 -308 -392 -396 -58 -78 -105 -160 -100 -175 2 -5 25 1 53 15 27 14 51 24 53 22 2 -2 -8 -22 -22 -43 -52 -78 -89 -231 -72 -298 7 -26 8 -27 26 -10 20 18 20 17 20 -44 0 -176 97 -412 232 -566 34 -38 37 -40 111 -43 168 -9 280 61 424 267 26 36 77 104 114 151 37 47 95 128 129 180 l62 95 -7 -55 c-14 -118 -57 -307 -86 -375 -34 -82 -87 -150 -124 -159 -33 -9 -32 -39 3 -66 22 -18 37 -21 79 -18 l52 5 -14 -27 c-16 -32 -61 -79 -94 -101 -24 -15 -24 -16 -6 -46 10 -17 36 -42 57 -54 22 -13 81 -64 132 -114 50 -49 120 -110 154 -135 63 -46 222 -145 245 -153 8 -2 0 -17 -21 -41 -47 -54 -83 -131 -89 -192 -3 -30 -3 -54 1 -54 3 0 20 15 37 33 l30 32 -19 -40 c-11 -22 -23 -56 -27 -75 -5 -22 -36 -66 -87 -126 -175 -201 -292 -423 -323 -615 l-5 -36 -45 9 c-30 6 -62 6 -95 -1 -180 -39 -315 -216 -351 -462 -7 -46 -15 -87 -18 -91 -9 -11 -94 17 -161 53 -83 44 -142 105 -239 247 -90 131 -163 207 -236 242 -25 12 -48 21 -50 18 -2 -2 0 -22 5 -44 5 -22 11 -141 13 -265 3 -194 6 -232 24 -287 13 -37 17 -62 10 -62 -19 0 -95 87 -108 124 -7 20 -19 36 -27 36 -32 0 30 -210 87 -293 71 -103 190 -177 351 -218 73 -19 95 -21 155 -12 68 10 174 48 163 59 -3 3 -43 0 -88 -6 -157 -21 -330 29 -462 134 -38 30 -111 116 -104 123 2 2 26 -10 54 -26 53 -31 141 -65 149 -57 3 2 -16 30 -41 61 -93 114 -115 198 -116 441 0 109 -4 164 -15 194 -8 24 -13 45 -10 48 10 10 145 -138 213 -235 87 -123 152 -190 224 -231 59 -33 146 -62 190 -62 27 0 28 -2 28 -53 0 -63 38 -215 69 -275 18 -36 20 -46 9 -59 -32 -39 -192 -82 -310 -83 -31 0 -59 -4 -63 -9 -8 -13 96 -42 124 -34 15 4 22 2 18 -4 -7 -11 36 -5 111 16 29 8 48 9 60 2 9 -6 13 -11 8 -11 -5 0 -3 -7 4 -15 11 -13 10 -14 -5 -9 -15 6 -17 2 -11 -32 4 -24 1 -58 -8 -88 l-15 -49 30 -34 c29 -34 29 -34 12 -65 -10 -16 -31 -39 -48 -51 -37 -25 -105 -89 -105 -98 0 -11 116 -28 230 -34 304 -16 602 -36 655 -45 33 -5 98 -16 145 -24 262 -47 495 -55 690 -26 101 16 158 32 342 101 86 33 172 59 191 59 19 0 115 -23 213 -51 334 -95 461 -114 717 -106 189 5 280 23 391 76 34 16 87 35 119 41 103 21 136 42 179 111 9 14 53 46 97 72 141 82 138 121 -16 212 -128 76 -147 88 -206 130 -26 19 -79 44 -118 57 -38 12 -69 24 -69 27 0 4 25 36 54 73 30 37 64 93 76 125 63 167 -33 379 -208 460 l-52 24 7 57 c5 31 8 120 7 197 -1 191 -34 347 -103 480 -21 41 -25 65 -26 135 -1 47 -5 97 -9 111 -7 25 -5 27 38 33 55 9 59 25 15 57 -21 15 -45 50 -69 103 -60 129 -63 117 37 162 49 21 135 67 191 101 57 35 112 63 121 63 19 0 59 26 51 33 -3 2 -27 15 -55 27 l-50 22 66 17 c36 9 79 25 96 36 31 20 93 90 93 106 0 4 3 14 6 23 5 14 -1 15 -38 10 -32 -5 -54 -1 -79 11 -56 29 -88 63 -56 62 32 -1 63 4 77 13 12 8 11 13 -11 37 -43 45 -57 74 -73 143 -14 60 -20 202 -16 360 1 56 3 61 12 40 6 -14 30 -67 54 -118 27 -58 44 -108 44 -131 0 -51 25 -145 60 -218 37 -80 104 -152 183 -194 56 -31 70 -34 142 -34 66 1 91 6 142 29 33 15 74 41 89 57 19 20 38 29 59 29 44 0 128 44 169 90 48 53 73 106 88 184 7 36 16 66 20 66 4 0 22 -9 40 -20 29 -18 68 -27 68 -16 0 2 -42 114 -94 249 -85 220 -123 331 -241 707 -93 299 -243 503 -438 600 -147 73 -260 76 -515 15 l-112 -27 -64 59 c-182 170 -465 293 -733 318 l-73 7 25 32 c32 42 47 85 40 114 l-6 23 -35 -30 c-60 -54 -72 -36 -15 23 72 77 99 154 41 116z m-93 -105 c-15 -14 -39 -25 -52 -25 -24 0 -285 -51 -460 -90 -142 -32 -156 -32 -62 0 48 17 170 44 270 61 100 17 211 42 247 54 84 30 91 30 57 0z m28 -115 c-34 -38 -104 -77 -195 -110 -50 -18 -89 -34 -87 -36 2 -3 39 3 83 12 155 32 353 10 568 -65 86 -30 281 -135 351 -188 87 -67 87 -69 7 -29 -57 29 -77 34 -92 26 -44 -24 -90 -127 -90 -204 0 -89 38 -134 168 -200 103 -52 168 -136 206 -265 17 -57 22 -216 8 -239 -12 -18 -46 11 -292 237 -30 28 -58 51 -62 51 -3 0 -23 22 -42 49 -59 80 -163 114 -235 77 -70 -37 -138 -156 -152 -263 -4 -38 -13 -86 -18 -108 -13 -48 -14 -125 -3 -143 9 -13 42 -6 42 9 0 5 7 9 15 9 8 0 15 4 15 9 0 4 26 34 58 66 77 79 143 108 242 109 67 0 82 -3 138 -34 35 -18 80 -52 100 -76 46 -52 92 -143 99 -193 10 -70 -14 -54 -60 41 -72 152 -155 213 -287 213 -62 0 -85 -5 -131 -28 -138 -67 -221 -219 -222 -404 -1 -46 -4 -83 -7 -83 -3 0 -21 10 -40 23 -36 23 -90 49 -90 43 0 -2 24 -18 53 -36 28 -18 74 -58 102 -91 57 -68 171 -138 278 -170 60 -19 80 -20 165 -13 162 14 162 14 355 -91 49 -26 98 -57 110 -70 31 -31 70 -86 64 -91 -2 -2 -23 2 -45 10 -33 12 -42 12 -42 3 0 -19 53 -98 84 -126 14 -14 26 -33 26 -44 0 -16 -5 -18 -32 -15 -18 3 -42 9 -53 13 -19 9 -19 8 -3 -17 17 -26 17 -27 -1 -33 -10 -3 -44 4 -74 15 -42 16 -64 32 -87 63 -22 30 -30 36 -30 21 0 -39 30 -128 54 -163 26 -36 27 -53 2 -32 -15 13 -43 -12 -117 -106 -60 -76 -181 -135 -529 -258 -258 -91 -342 -131 -413 -194 -34 -30 -90 -68 -126 -85 -59 -27 -78 -31 -184 -34 -69 -3 -143 0 -180 8 -173 33 -282 155 -367 408 -31 93 -41 166 -17 128 34 -54 193 -250 245 -303 102 -104 232 -147 374 -125 104 16 177 57 310 176 65 58 150 127 190 153 86 56 195 163 271 265 74 98 94 115 150 123 80 12 112 82 67 146 -39 53 -174 77 -162 28 2 -10 0 -10 -12 0 -10 8 -16 9 -21 1 -3 -5 -2 -10 4 -10 6 0 7 -7 4 -17 -4 -11 -3 -14 5 -9 7 4 12 1 12 -9 0 -9 -4 -13 -10 -10 -5 3 -10 -3 -10 -13 0 -30 -195 -212 -262 -244 -178 -87 -372 -71 -483 39 -37 38 -65 96 -65 135 0 56 12 108 25 108 31 0 230 116 275 160 63 64 105 147 96 194 -21 110 -232 182 -511 174 -151 -4 -221 -23 -244 -66 -46 -86 39 -267 167 -354 26 -17 64 -47 85 -65 21 -19 49 -38 63 -43 23 -9 25 -13 19 -57 -12 -92 -17 -103 -63 -150 -63 -63 -117 -85 -222 -91 -160 -9 -254 38 -437 217 -66 64 -129 123 -142 131 -12 8 -23 24 -25 35 -1 11 -12 24 -24 30 -12 5 -22 13 -22 17 0 17 -40 7 -69 -18 -27 -22 -31 -33 -31 -73 0 -57 25 -86 83 -96 21 -4 51 -18 67 -32 40 -33 137 -179 192 -288 60 -118 129 -285 117 -285 -11 0 -160 78 -244 128 -178 105 -345 237 -413 325 l-43 55 43 42 c24 23 36 39 28 36 -85 -29 -92 -30 -101 -15 -48 74 -51 266 -5 356 14 29 36 59 49 66 12 8 62 39 111 70 107 69 131 71 267 26 176 -58 263 -37 392 95 63 64 76 83 90 133 17 63 27 250 14 271 -5 7 -3 12 7 12 22 0 29 39 24 123 -3 46 -13 87 -26 114 -12 23 -22 53 -22 67 0 36 -28 114 -53 149 -34 45 -96 77 -151 77 -61 0 -110 -23 -148 -71 -17 -21 -56 -54 -87 -75 -31 -20 -96 -76 -145 -123 l-89 -86 7 90 c8 109 49 234 99 302 39 53 120 107 204 135 84 29 165 33 268 13 131 -25 218 -24 252 2 45 33 59 83 45 164 -24 137 -11 213 46 272 19 20 60 38 157 68 71 22 154 54 182 70 43 23 66 29 120 30 38 1 82 5 98 9 47 12 49 11 30 -10z m-1554 -179 c64 -22 135 -57 143 -70 4 -5 -31 4 -78 20 -76 26 -172 37 -161 18 6 -8 -45 -23 -53 -15 -2 3 8 10 23 16 15 6 29 19 32 30 7 25 25 25 94 1z m-33 -70 c10 -6 6 -10 -15 -15 -15 -4 -36 -9 -45 -12 -26 -8 -22 11 5 24 28 13 38 14 55 3z m3026 -234 c95 -43 169 -102 249 -200 81 -99 162 -257 211 -412 19 -60 60 -191 91 -290 31 -99 72 -222 91 -274 38 -102 41 -146 4 -66 -28 62 -37 45 -16 -29 21 -71 20 -79 -5 -33 -19 36 -39 49 -39 26 0 -23 -29 12 -36 44 l-7 32 -9 -40 c-4 -22 -11 -47 -14 -55 -10 -27 -24 11 -24 64 0 44 2 48 21 43 18 -5 20 -2 15 16 -14 52 -27 147 -24 173 3 25 6 20 27 -36 23 -65 36 -88 45 -79 7 7 -6 54 -97 334 -90 280 -131 378 -201 484 -44 66 -135 161 -155 161 -6 0 -4 -17 5 -42 25 -73 43 -150 54 -243 7 -55 19 -103 31 -124 31 -53 49 -137 49 -231 0 -138 -13 -165 -156 -305 -125 -123 -165 -183 -195 -285 -19 -70 -29 -70 -29 -1 0 59 23 163 40 186 19 24 68 166 80 229 20 106 9 258 -30 401 -17 66 -36 124 -41 129 -17 18 -10 46 11 46 28 0 133 -43 171 -70 16 -12 33 -19 37 -16 10 10 -16 95 -53 174 -20 41 -56 95 -85 126 -36 38 -47 55 -36 59 7 3 24 -1 35 -10 34 -23 38 -6 7 26 -40 42 -127 82 -206 94 -69 11 -69 11 -37 23 50 19 142 7 221 -29z m-3161 -93 c29 -15 54 -28 56 -30 2 -2 -12 -21 -31 -43 -83 -91 -177 -254 -208 -358 -6 -21 -15 -110 -20 -198 -13 -222 -50 -362 -119 -446 -30 -36 -108 -95 -116 -88 -2 3 2 29 10 59 23 86 19 215 -11 348 -24 109 -26 149 -7 200 6 15 5 16 -12 2 -17 -14 -18 -13 -13 25 3 22 9 49 14 59 5 14 4 17 -5 12 -17 -11 11 54 55 128 19 32 33 60 31 63 -3 2 -19 -8 -36 -22 -24 -21 -31 -23 -31 -11 0 9 6 19 13 22 8 3 12 19 10 42 -1 20 0 28 3 17 3 -11 11 -24 16 -30 8 -7 9 -6 4 3 -4 7 -1 12 8 12 21 0 40 36 23 44 -6 3 -4 4 7 3 22 -2 48 33 29 40 -7 3 -13 11 -13 19 0 8 -5 14 -11 14 -17 0 12 25 65 54 33 19 57 25 73 21 16 -4 22 -2 18 5 -3 5 2 10 12 10 10 1 38 12 63 25 57 30 60 30 123 -1z m-399 -179 c-4 -8 -8 -15 -10 -15 -2 0 -4 7 -4 15 0 8 4 15 10 15 5 0 7 -7 4 -15z m1090 -354 c54 -23 59 -38 7 -20 -50 17 -171 6 -222 -20 -80 -41 -182 -161 -249 -293 -35 -71 -55 4 -25 94 33 96 163 221 265 253 61 20 163 14 224 -14z m56 -211 c18 0 40 -32 40 -57 0 -37 -27 -63 -66 -63 -44 0 -66 24 -62 69 2 26 9 39 28 48 14 7 31 11 38 8 8 -3 17 -5 22 -5z m-424 -133 c4 -158 116 -267 275 -267 128 0 224 69 265 192 l14 43 -5 -54 c-8 -88 -41 -140 -116 -181 -62 -33 -68 -34 -169 -34 -121 1 -217 24 -253 60 -27 27 -57 111 -57 160 0 26 35 144 43 144 1 0 3 -28 3 -63z m2009 -2 c14 -13 25 -31 25 -40 0 -25 -46 -65 -75 -65 -33 0 -65 33 -65 67 0 61 70 84 115 38z m-1590 -70 c0 -23 -34 -33 -46 -14 -10 17 9 41 30 37 9 -2 16 -12 16 -23z m1162 -65 c4 -100 69 -196 168 -248 101 -53 247 -26 319 59 31 36 59 90 71 134 8 30 8 29 15 -15 14 -85 -12 -182 -60 -225 -19 -17 -35 -20 -114 -19 -160 1 -320 51 -387 120 -33 34 -34 38 -34 112 0 65 9 132 18 132 1 0 3 -23 4 -50z m-1437 -19 c0 -18 99 -51 156 -51 41 0 55 -3 47 -11 -15 -15 -117 -13 -150 4 -34 18 -81 67 -65 67 7 0 12 -4 12 -9z m1850 -16 c10 -12 10 -18 0 -30 -16 -20 -36 -19 -44 1 -6 16 9 44 24 44 4 0 13 -7 20 -15z m-235 -130 c43 -20 129 -25 205 -12 l45 7 -28 -25 c-58 -52 -210 -29 -268 41 -8 10 -9 15 -4 13 6 -3 28 -13 50 -24z m-554 -55 c109 -36 162 -82 145 -127 -5 -13 -12 -11 -41 11 -83 64 -240 106 -399 107 -86 1 -104 3 -81 10 101 33 275 32 376 -1z m-363 -894 c36 -19 75 -61 117 -127 l34 -54 1 66 c0 44 5 70 14 78 22 18 109 25 152 11 147 -46 171 -146 64 -264 -28 -30 -64 -59 -81 -65 -17 -6 -27 -6 -24 -1 4 6 1 10 -4 10 -6 0 -11 -7 -11 -15 0 -18 0 -18 -118 -16 -50 1 -104 6 -119 12 -20 7 -28 6 -35 -3 -7 -12 -12 -4 -9 14 0 4 -9 10 -21 14 -39 12 -105 68 -133 112 -51 80 -42 149 28 214 36 32 98 38 145 14z m-770 -178 c20 -12 32 -16 28 -10 -4 7 -1 12 8 12 8 0 20 -9 26 -20 7 -14 17 -19 29 -15 19 6 203 -87 251 -126 14 -12 19 -17 11 -13 -9 5 -12 3 -7 -5 4 -6 12 -9 17 -5 5 3 43 -28 84 -69 44 -44 96 -86 127 -101 71 -35 188 -50 317 -41 121 8 180 26 273 83 131 80 136 82 809 308 11 4 23 -12 46 -63 17 -37 49 -89 72 -115 43 -48 43 -48 14 -43 -97 18 -123 22 -123 18 0 -3 11 -19 25 -35 36 -43 61 -96 70 -145 6 -41 -4 -58 -20 -33 -8 13 -80 50 -96 50 -7 0 -3 -10 9 -22 24 -27 46 -78 32 -78 -5 0 -25 10 -45 21 -20 12 -38 19 -41 16 -3 -2 3 -20 12 -40 24 -51 12 -97 -41 -157 -26 -29 -47 -64 -51 -85 -7 -41 -20 -38 -29 8 -8 38 -52 117 -65 117 -6 0 -10 -21 -10 -47 0 -50 -16 -94 -37 -101 -7 -2 -13 3 -13 12 0 8 -5 27 -11 43 l-11 28 -20 -45 c-11 -25 -23 -39 -25 -32 -3 7 -17 -22 -32 -65 -15 -43 -42 -103 -59 -133 l-32 -55 0 90 -1 90 -24 -47 c-13 -26 -51 -88 -85 -138 -61 -91 -90 -147 -90 -172 0 -7 18 20 40 61 21 41 43 78 47 82 12 12 5 -326 -8 -395 -6 -33 -22 -84 -35 -115 l-25 -56 -32 80 c-31 76 -74 151 -83 142 -2 -2 3 -17 11 -34 25 -49 37 -140 33 -242 -3 -89 -8 -105 -53 -209 -26 -62 -51 -111 -54 -110 -3 2 -62 32 -131 68 -151 79 -247 163 -304 268 l-37 67 5 -67 c3 -38 2 -68 -2 -68 -14 1 -71 86 -102 151 -17 36 -37 102 -44 146 -20 113 -33 138 -122 237 -102 114 -131 159 -145 226 -7 30 -16 59 -20 64 -12 14 -22 -61 -16 -120 3 -30 2 -54 -3 -54 -12 0 -45 44 -60 80 -23 55 -41 31 -20 -27 9 -26 7 -25 -26 12 -73 81 -114 185 -114 287 0 26 -4 48 -8 48 -10 0 -52 -81 -52 -101 0 -10 -3 -10 -11 -2 -20 20 -24 155 -5 209 18 53 14 64 -14 46 -27 -17 -27 6 1 60 16 31 19 51 14 84 -4 29 -10 41 -19 38 -9 -3 -13 8 -13 41 -1 25 4 45 9 45 6 0 7 7 4 16 -7 19 13 53 61 104 39 42 42 58 8 58 -13 0 -22 -4 -19 -9 3 -5 0 -9 -5 -9 -6 0 -11 5 -11 11 0 6 -7 8 -16 5 -18 -7 -14 -1 25 47 18 21 16 21 59 -5z m1991 -490 c11 -10 14 -10 18 0 9 24 21 11 57 -68 71 -155 103 -358 92 -585 -3 -77 -10 -160 -16 -185 -14 -65 -25 -205 -23 -277 2 -47 14 -92 48 -178 25 -64 45 -132 45 -153 l0 -38 78 -11 c120 -18 187 -47 253 -112 86 -85 110 -183 68 -281 -40 -93 -127 -140 -261 -140 l-37 0 5 68 5 67 -25 -63 c-13 -35 -34 -75 -47 -88 -56 -59 -217 -82 -324 -46 -78 27 -100 92 -68 207 3 11 2 17 -2 13 -12 -12 -32 -123 -28 -155 5 -28 2 -30 -34 -36 -138 -23 -244 15 -279 100 -30 70 -12 196 37 265 15 20 23 48 25 83 1 29 14 79 29 116 33 77 33 78 11 204 -18 103 -24 409 -10 523 3 28 4 52 0 52 -3 0 -13 -26 -21 -57 -24 -84 -72 -217 -95 -262 -11 -22 -43 -63 -72 -91 -64 -63 -186 -138 -163 -100 4 6 6 52 7 103 0 59 3 85 8 72 5 -11 9 -39 9 -63 1 -56 17 -52 53 14 59 105 71 163 69 345 l-1 166 34 37 c22 25 35 33 38 24 11 -29 51 37 143 235 29 61 51 77 40 27 -4 -16 -3 -30 2 -30 20 0 84 53 99 83 16 29 18 30 25 12 4 -11 8 -37 8 -58 1 -52 29 -47 48 8 9 26 36 61 79 101 61 57 66 64 62 95 -3 19 -8 42 -13 52 -8 20 5 23 24 5z m-1879 -613 c23 -8 55 -15 70 -15 33 0 40 -14 40 -82 0 -55 35 -154 82 -230 39 -62 203 -414 239 -511 16 -43 29 -92 29 -110 0 -29 5 -34 47 -51 129 -53 192 -173 163 -310 -22 -107 -98 -160 -220 -154 l-64 3 3 55 c1 30 -2 66 -7 79 -7 21 -10 16 -15 -34 -11 -112 -74 -155 -227 -155 -83 0 -103 4 -147 25 -66 33 -77 59 -70 167 3 46 8 97 11 113 l6 30 -14 -30 c-25 -54 -34 -128 -21 -179 l12 -46 -50 -15 c-64 -19 -103 -19 -158 0 -52 19 -74 37 -105 91 -72 122 -14 302 112 350 33 13 44 22 44 38 0 29 -20 187 -26 207 -5 19 51 59 110 79 38 12 38 13 32 54 -8 49 -21 113 -37 182 -12 49 -11 54 25 137 37 87 86 259 86 303 0 28 -3 28 50 9z m2169 -239 c43 -23 110 -102 139 -164 18 -38 28 -80 30 -125 4 -60 1 -75 -26 -130 -17 -34 -44 -75 -60 -90 l-30 -29 -41 30 c-53 38 -75 67 -106 135 -61 132 -48 273 33 360 30 32 26 31 61 13z m-2594 -623 c54 -28 76 -54 82 -100 5 -35 2 -41 -37 -72 -53 -43 -87 -115 -96 -203 -7 -74 -10 -76 -106 -93 -35 -5 -38 -4 -38 17 0 13 -17 56 -37 96 -30 59 -38 89 -43 150 l-6 77 -8 -48 c-11 -64 -1 -121 35 -198 l30 -64 -21 -17 c-36 -29 -136 -24 -213 10 -74 34 -119 82 -142 153 -16 48 -17 56 -2 103 29 91 129 167 265 201 87 22 285 15 337 -12z"/>
<path d="M4160 3253 c-24 -23 -41 -43 -36 -43 19 0 106 54 106 66 0 27 -28 18 -70 -23z"/>
<path d="M1311 5114 c0 -11 3 -14 6 -6 3 7 2 16 -1 19 -3 4 -6 -2 -5 -13z"/>
<path d="M4002 2157 c-132 -112 -176 -208 -152 -331 18 -95 69 -205 117 -257 51 -55 116 -88 141 -72 42 25 65 340 38 518 -20 137 -37 199 -56 202 -8 1 -48 -25 -88 -60z m132 -284 c8 -50 6 -200 -4 -238 -5 -21 -8 -6 -9 55 -1 47 -4 115 -8 153 -6 72 10 96 21 30z"/>
</g>
</svg>